<?xml version="1.0" standalone="no"?>
<!DOCTYPE svg PUBLIC "-//W3C//DTD SVG 20010904//EN"
 "http://www.w3.org/TR/2001/REC-SVG-20010904/DTD/svg10.dtd">
<svg version="1.0" xmlns="http://www.w3.org/2000/svg"
 width="600.000000pt" height="600.000000pt" viewBox="0 0 600.000000 600.000000"
 preserveAspectRatio="xMidYMid meet">
<metadata>
Created by potrace 1.16, written by Peter Selinger 2001-2019
</metadata>
<g transform="translate(0.000000,600.000000) scale(0.100000,-0.100000)"
fill="#000000" stroke="none">
<path d="M2835 4651 c-327 -39 -649 -176 -901 -386 -284 -237 -484 -575 -565
-960 -20 -94 -23 -139 -23 -310 0 -171 3 -216 23 -310 108 -509 427 -930 882
-1163 122 -62 310 -129 449 -159 131 -28 500 -25 626 5 217 51 422 137 586
244 368 240 619 609 720 1058 20 94 23 129 22 330 0 191 -3 239 -21 320 -75
333 -228 616 -458 845 -254 254 -549 410 -890 470 -106 19 -350 27 -450 16z
m355 -702 c121 -23 125 -25 137 -71 17 -60 63 -111 144 -160 111 -65 152 -136
142 -239 -5 -52 -4 -57 22 -77 33 -26 60 -22 94 16 22 25 23 32 18 109 -4 51
-14 101 -27 130 l-21 48 56 -55 c203 -199 315 -467 315 -756 l0 -114 -34 -38
-34 -37 -424 -3 -424 -3 4 35 c6 49 -35 91 -81 82 -45 -9 -70 -42 -64 -83 l6
-33 -494 0 c-280 0 -504 4 -518 9 -14 5 -35 25 -48 43 -49 67 -34 298 31 485
70 200 198 377 370 507 59 45 156 106 168 106 4 0 7 -23 8 -51 1 -59 39 -121
92 -152 81 -48 155 45 83 105 -42 36 -54 63 -46 108 8 50 17 56 101 76 145 34
289 38 424 13z m158 -1388 c21 -1 22 -5 22 -82 l0 -80 -49 -48 c-35 -34 -63
-52 -95 -60 -26 -6 -55 -20 -66 -31 -36 -36 -21 -91 30 -108 35 -13 74 -3 136
33 l44 26 0 -39 c0 -127 -111 -257 -254 -298 -87 -24 -203 -15 -281 21 -110
52 -188 158 -201 271 l-7 57 48 -29 c41 -24 63 -29 137 -32 88 -4 88 -5 86
-31 -3 -42 11 -68 41 -81 23 -9 34 -9 53 1 34 18 38 27 38 101 0 124 -28 148
-175 148 -106 0 -122 5 -177 58 -38 36 -38 36 -38 119 l0 82 138 3 c123 3 513
2 570 -1z"/>
<path d="M2997 3658 c-41 -32 -39 -115 3 -138 33 -18 79 -11 105 15 51 50 17
135 -54 135 -20 0 -45 -6 -54 -12z"/>
<path d="M2459 3401 c-120 -39 -173 -192 -103 -294 68 -98 206 -114 292 -34
71 66 83 183 25 254 -16 21 -44 46 -61 56 -35 21 -115 30 -153 18z"/>
<path d="M3205 3236 c-45 -19 -92 -78 -100 -124 -18 -107 61 -202 168 -202 81
0 146 50 167 130 19 72 -21 160 -91 195 -34 18 -104 19 -144 1z"/>
<path d="M3705 3055 c-28 -27 -34 -88 -12 -116 36 -47 97 -51 138 -10 37 37
38 79 3 120 -34 41 -92 44 -129 6z"/>
<path d="M2199 3036 c-34 -16 -52 -58 -40 -89 23 -59 101 -59 128 -1 16 32 16
36 -3 61 -26 34 -55 44 -85 29z"/>
</g>
</svg>
